<svg xmlns="http://www.w3.org/2000/svg" width="22.092" height="21.172" viewBox="0 0 22.092 21.172">
  <path id="Icon_map-amusement-park" data-name="Icon map-amusement-park" d="M18.634,13.446a.552.552,0,0,0,.577-.005c.105-.107.014-.277-.2-.376l-3.764-1.743a1.318,1.318,0,0,0-.8-.058l-1.346.4a2.991,2.991,0,0,1-.662.125c-.135,0-.248-.191-.248-.424v-4.1a.43.43,0,0,1,.433-.425h9.761a.43.43,0,0,0,.434-.425V5.035a.609.609,0,0,0-.415-.546l-10.28-3a1.731,1.731,0,0,0-.829,0l-10.154,3a.609.609,0,0,0-.414.547V6.413a.43.43,0,0,0,.433.425h9.633a.43.43,0,0,1,.433.425V11.37a.431.431,0,0,1-.433.425h-.175a1.242,1.242,0,0,1-.744-.3L7.545,9.282a1.245,1.245,0,0,0-.744-.3H5.726a.839.839,0,0,1-.636-.311.764.764,0,0,0-.574-.31c-.2,0-.268.16-.139.357l.02.031a.72.72,0,0,1,0,.718L3.238,11.275a.52.52,0,0,0,.09.645l.082.074a.677.677,0,0,0,.7.088l1.245-.648a.486.486,0,0,1,.617.158l1.366,2.09a.494.494,0,0,1-.1.633l-.625.521a.763.763,0,0,0-.235.689L7.2,19.05a.422.422,0,0,0,.516.311l.563-.139A.442.442,0,0,0,8.6,18.7l-.548-2.382a.45.45,0,0,1,.323-.527l1.384-.371a3.949,3.949,0,0,1,.851-.111h.175a.43.43,0,0,1,.433.423v4.224a.43.43,0,0,1-.433.424H1.153a.43.43,0,0,0-.433.425v1.377a.43.43,0,0,0,.433.427H22.2a.43.43,0,0,0,.433-.426V20.809a.43.43,0,0,0-.433-.425H12.617a.429.429,0,0,1-.433-.424V15.736a.43.43,0,0,1,.433-.423h.5a3.964,3.964,0,0,1,.851.111l1.384.371a.448.448,0,0,1,.323.527L15.127,18.7a.439.439,0,0,0,.324.519l.564.139a.421.421,0,0,0,.515-.311l.81-3.522a.751.751,0,0,0-.225-.682,1.118,1.118,0,0,1-.345-.691L16.7,12.91c-.014-.233.15-.338.364-.233Z" transform="translate(-0.72 -1.44)" fill="#7e7e7e"/>
</svg>
