<svg xmlns="http://www.w3.org/2000/svg" width="26.068" height="20.852" viewBox="0 0 26.068 20.852">
  <path id="Icon_awesome-hands-helping" data-name="Icon awesome-hands-helping" d="M19.876,7.821H13.685V10.1a2.933,2.933,0,0,1-5.865,0V5.149L5.176,6.737A2.6,2.6,0,0,0,3.909,8.97V10.9L.651,12.778a1.3,1.3,0,0,0-.477,1.78L3.433,20.2a1.3,1.3,0,0,0,1.78.477l4.212-2.432h5.564a2.609,2.609,0,0,0,2.607-2.607h.652a1.3,1.3,0,0,0,1.3-1.3V11.731h.326a.975.975,0,0,0,.978-.978V8.8A.975.975,0,0,0,19.876,7.821ZM25.892,6.3,22.633.652a1.3,1.3,0,0,0-1.78-.477L16.642,2.607H12.479A2.626,2.626,0,0,0,11.1,3l-1.364.851a1.3,1.3,0,0,0-.611,1.1V10.1a1.629,1.629,0,1,0,3.258,0V6.518h7.494A2.282,2.282,0,0,1,22.157,8.8V9.959l3.258-1.882a1.3,1.3,0,0,0,.477-1.78Z" transform="translate(0.002 -0.002)" fill="#7e7e7e"/>
</svg>
