<svg xmlns="http://www.w3.org/2000/svg" width="21.969" height="17.087" viewBox="0 0 21.969 17.087">
  <path id="Icon_awesome-shopping-basket" data-name="Icon awesome-shopping-basket" d="M21.969,9.268v.61a.915.915,0,0,1-.915.915h-.305l-1,6.972a1.831,1.831,0,0,1-1.812,1.572H4.029a1.831,1.831,0,0,1-1.812-1.572l-1-6.972H.915A.915.915,0,0,1,0,9.878v-.61a.915.915,0,0,1,.915-.915H3.484l4.073-5.6A1.22,1.22,0,0,1,9.53,4.188L6.5,8.352h8.965L12.438,4.188a1.22,1.22,0,0,1,1.974-1.436l4.073,5.6h2.568A.915.915,0,0,1,21.969,9.268ZM11.9,15.98V11.709a.915.915,0,1,0-1.831,0V15.98a.915.915,0,1,0,1.831,0Zm4.272,0V11.709a.915.915,0,1,0-1.831,0V15.98a.915.915,0,1,0,1.831,0Zm-8.543,0V11.709a.915.915,0,1,0-1.831,0V15.98a.915.915,0,1,0,1.831,0Z" transform="translate(0 -2.25)" fill="#7e7e7e"/>
</svg>
