<svg xmlns="http://www.w3.org/2000/svg" width="23.014" height="18.219" viewBox="0 0 23.014 18.219">
  <path id="Icon_map-art-gallery" data-name="Icon map-art-gallery" d="M10.41,4.32C4.354,4.32.72,9.178.72,11.608s1.211,4.251,3.634,4.251,3.634.607,3.634,2.429a4.145,4.145,0,0,0,4.239,4.251c7.874,0,11.507-4.251,11.507-8.5C23.734,6.749,17.676,4.32,10.41,4.32ZM8.9,6.749A1.518,1.518,0,1,1,7.382,8.267,1.516,1.516,0,0,1,8.9,6.749Zm4.844,0a1.518,1.518,0,1,1-1.514,1.518,1.516,1.516,0,0,1,1.514-1.518Zm4.845,2.429A1.518,1.518,0,1,1,17.072,10.7,1.516,1.516,0,0,1,18.586,9.178ZM4.657,10.393a1.518,1.518,0,1,1-1.514,1.517A1.515,1.515,0,0,1,4.657,10.393Zm7.57,6.073a1.822,1.822,0,1,1-1.817,1.822,1.819,1.819,0,0,1,1.817-1.822Z" transform="translate(-0.72 -4.32)" fill="#7e7e7e"/>
</svg>
