<svg xmlns="http://www.w3.org/2000/svg" width="26.813" height="21.068" viewBox="0 0 26.813 21.068">
  <g id="md-megaphone" transform="translate(-2.25 -5.625)">
    <path id="Tracé_6" data-name="Tracé 6" d="M26.611,10.083l-1.369,1.363a4.822,4.822,0,0,1,0,6.826l1.369,1.369a6.76,6.76,0,0,0,0-9.557Z" transform="translate(-3.348 -0.631)" fill="#fff"/>
    <path id="Tracé_7" data-name="Tracé 7" d="M29.857,6.961,28.512,8.306a8.583,8.583,0,0,1,0,12.123l1.345,1.345a10.471,10.471,0,0,0,0-14.813Z" transform="translate(-3.863 -0.21)" fill="#fff"/>
    <path id="Tracé_8" data-name="Tracé 8" d="M19.556,11.856V5.625H17.633l-5.769,4.788H4.173l-1.923.958v6.7l1.923.958L8.98,26.693h2.884l-1.8-7.661h1.8l5.769,3.83h1.923V16.631a2.27,2.27,0,0,0,1.923-2.388A2.269,2.269,0,0,0,19.556,11.856Z" fill="#fff"/>
  </g>
</svg>
