<svg xmlns="http://www.w3.org/2000/svg" width="26.316" height="25" viewBox="0 0 26.316 25">
  <path id="bxs-store" d="M29.314,10.895a1.312,1.312,0,0,0-.188-.677L25.561,4.276A2.645,2.645,0,0,0,23.306,3H9.007A2.644,2.644,0,0,0,6.752,4.277l-3.565,5.94A1.312,1.312,0,0,0,3,10.895a5.226,5.226,0,0,0,1.316,3.445V26.684A1.316,1.316,0,0,0,5.63,28H16.156a1.316,1.316,0,0,0,1.316-1.316V20.105h5.263v6.579A1.316,1.316,0,0,0,24.051,28h2.632A1.316,1.316,0,0,0,28,26.684V14.339A5.226,5.226,0,0,0,29.314,10.895Zm-2.653.331a2.631,2.631,0,0,1-5.242-.331,1.217,1.217,0,0,0-.051-.253l.026-.005-1-5.005h2.913Zm-13.128-.245L14.6,5.632h3.107l1.07,5.349a2.624,2.624,0,0,1-5.246,0ZM9.007,5.632H11.92l-1,5.005.026.005a1.115,1.115,0,0,0-.053.253,2.631,2.631,0,0,1-5.242.331Zm4.518,15.789H8.262V17.474h5.263Z" transform="translate(-2.998 -3)" fill="#fff"/>
</svg>
