<svg xmlns="http://www.w3.org/2000/svg" width="17.748" height="23.663" viewBox="0 0 17.748 23.663">
  <path id="Icon_awesome-monument" data-name="Icon awesome-monument" d="M17.008,20.706H.739A.739.739,0,0,0,0,21.445v1.479a.739.739,0,0,0,.739.739H17.008a.739.739,0,0,0,.739-.739V21.445A.739.739,0,0,0,17.008,20.706ZM13.363,4.656a1.478,1.478,0,0,0-.426-.9L9.4.217a.739.739,0,0,0-1.046,0L4.81,3.758a1.478,1.478,0,0,0-.426.9L2.958,19.227H14.79ZM11.092,14.2a.636.636,0,0,1-.592.592H7.247a.636.636,0,0,1-.592-.592V12.423a.636.636,0,0,1,.592-.592H10.5a.636.636,0,0,1,.592.592Z" transform="translate(0 0)" fill="#7e7e7e"/>
</svg>
