<svg xmlns="http://www.w3.org/2000/svg" width="19.864" height="23.837" viewBox="0 0 19.864 23.837">
  <path id="Icon_material-contacts" data-name="Icon material-contacts" d="M20.878,0H4.986V1.986H20.878ZM4.986,23.837H20.878V21.851H4.986ZM20.878,3.973H4.986A1.992,1.992,0,0,0,3,5.959V17.878a1.992,1.992,0,0,0,1.986,1.986H20.878a1.992,1.992,0,0,0,1.986-1.986V5.959A1.992,1.992,0,0,0,20.878,3.973ZM12.932,6.7A2.235,2.235,0,1,1,10.7,8.939,2.238,2.238,0,0,1,12.932,6.7ZM17.9,16.885H7.966v-1.49c0-1.659,3.307-2.483,4.966-2.483s4.966.824,4.966,2.483Z" transform="translate(-3)" fill="#7e7e7e"/>
</svg>
