<svg xmlns="http://www.w3.org/2000/svg" width="22.726" height="14.204" viewBox="0 0 22.726 14.204">
  <path id="hotel" d="M2.841,8.522H22.016a.72.72,0,0,1,.71.71V14.2H19.886V11.363H2.841V14.2H0V.71a.683.683,0,0,1,.211-.5A.683.683,0,0,1,.71,0h1.42a.683.683,0,0,1,.5.211.683.683,0,0,1,.211.5ZM9.233,4.971A2.738,2.738,0,0,0,8.4,2.963a2.734,2.734,0,0,0-2.009-.832,2.74,2.74,0,0,0-2.009.832,2.736,2.736,0,0,0-.832,2.009A2.736,2.736,0,0,0,4.383,6.98a2.74,2.74,0,0,0,2.009.832A2.734,2.734,0,0,0,8.4,6.98,2.738,2.738,0,0,0,9.233,4.971ZM22.726,7.812V7.1a4.1,4.1,0,0,0-1.249-3.012,4.109,4.109,0,0,0-3.013-1.249H10.653a.72.72,0,0,0-.71.71V7.812Z" fill="#7e7e7e"/>
</svg>
