<svg xmlns="http://www.w3.org/2000/svg" width="22.371" height="18.643" viewBox="0 0 22.371 18.643">
  <path id="Icon_map-museum" data-name="Icon map-museum" d="M4.574,10.125H6.4l.281,8.389H4.332l.243-8.389ZM3.05,18.98h17.71v.932h1.4v1.4h.932v.932H.72V21.31h.932v-1.4h1.4ZM21.693,7.707,11.906,3.6,2.118,7.707v.554H21.693V7.707ZM3.982,8.727H19.829v.932H3.982Zm13.393,1.4H19.2l.283,8.389H17.131l.245-8.389Zm-4.265,0h1.824l.28,8.389H12.864l.246-8.389Zm-4.266,0h1.825l.278,8.389H8.6l.246-8.389Z" transform="translate(-0.72 -3.6)" fill="#7e7e7e"/>
</svg>
