<svg xmlns="http://www.w3.org/2000/svg" width="22.846" height="22.835" viewBox="0 0 22.846 22.835">
  <path id="Icon_map-mosque" data-name="Icon map-mosque" d="M21.939,12.182a8.638,8.638,0,0,1-16.64.93,8.619,8.619,0,0,1,5.464-10.9,8.646,8.646,0,0,1,6.264.315l.427-.805A11.513,11.513,0,0,0,7.824.593a11.421,11.421,0,1,0,15.018,11.72l-.9-.132Zm-5.631-5.5L14.017,2.39,12.852,7.176l-4.765.937,4.362,2.477-.75,4.932,3.7-3.369,4.59,2.2L17.648,9.774,21.36,6.191Z" transform="translate(0.005 -0.014)" fill="#7e7e7e"/>
</svg>
